<svg width="1089" height="887" viewBox="0 0 1089 887" fill="none" xmlns="http://www.w3.org/2000/svg">
<g clip-path="url(#clip0)">
<path d="M348.855 -14.0254L457.451 70.855L364.999 240.732L259.061 156.369L348.855 -14.0254Z" fill="#DB7946" stroke="white" stroke-width="4" stroke-linecap="round" stroke-linejoin="round"/>
<path d="M457.392 70.8818L597.792 123.241L505.626 293.263L364.998 240.731L457.392 70.8818Z" fill="#EB6634" stroke="white" stroke-width="4" stroke-linecap="round" stroke-linejoin="round"/>
<path d="M457.451 70.8537L348.9 -14.067L482.637 31.2167L597.646 123.282L457.451 70.8537Z" fill="#DCAF8F" stroke="white" stroke-width="5" stroke-linecap="round" stroke-linejoin="round"/>
<path d="M779.481 424.694L963.425 398.401L1042.22 646.941L861.262 671.133L779.481 424.694Z" fill="#9F1F24" stroke="white" stroke-width="4" stroke-linecap="round" stroke-linejoin="round"/>
<path d="M963.396 398.485L1145.43 310.899L1224.63 559.295L1042.22 646.942L963.396 398.485Z" fill="#F15729" stroke="white" stroke-width="4" stroke-linecap="round" stroke-linejoin="round"/>
<path d="M963.424 398.399L779.483 424.611L948.415 336.894L1145.33 311.078L963.424 398.399Z" fill="#DCAF8F" stroke="white" stroke-width="5" stroke-linecap="round" stroke-linejoin="round"/>
<path d="M350.299 275.19L512.906 193.68L663.21 399.961L502.723 478.593L350.299 275.19Z" fill="#EDB91B" stroke="white" stroke-width="4" stroke-linecap="round" stroke-linejoin="round"/>
<path d="M512.905 193.766L654.712 55.9459L805.352 261.966L663.21 399.962L512.905 193.766Z" fill="#E5E24C" stroke="white" stroke-width="4" stroke-linecap="round" stroke-linejoin="round"/>
<path d="M512.906 193.68L350.275 275.114L479.879 141.239L654.68 56.1443L512.906 193.68Z" fill="#EACC19" stroke="white" stroke-width="5" stroke-linecap="round" stroke-linejoin="round"/>
<path d="M958.336 584.256L1075.42 660.458L996.94 840.087L882.583 764.175L958.336 584.256Z" fill="#9585BF" stroke="white" stroke-width="4" stroke-linecap="round" stroke-linejoin="round"/>
<path d="M1075.37 660.49L1221.72 701.069L1143.54 880.819L996.939 840.086L1075.37 660.49Z" fill="#6D5CA8" stroke="white" stroke-width="4" stroke-linecap="round" stroke-linejoin="round"/>
<path d="M1075.42 660.457L958.378 584.21L1097.39 618.228L1221.58 701.124L1075.42 660.457Z" fill="#C3C1DF" stroke="white" stroke-width="5" stroke-linecap="round" stroke-linejoin="round"/>
<path d="M45.2886 -96.542L179.627 -57.5126L156.573 137.426L24.9344 97.8821L45.2886 -96.542Z" fill="#C32027" stroke="white" stroke-width="4" stroke-linecap="round" stroke-linejoin="round"/>
<path d="M179.582 -57.4648L331.625 -61.074L308.896 133.894L156.572 137.426L179.582 -57.4648Z" fill="#9C1C1E" stroke="white" stroke-width="4" stroke-linecap="round" stroke-linejoin="round"/>
<path d="M179.628 -57.5141L45.3159 -96.5984L188.413 -104.362L331.504 -60.9802L179.628 -57.5141Z" fill="#DC3326" stroke="white" stroke-width="5" stroke-linecap="round" stroke-linejoin="round"/>
<path d="M399.467 466.096L532.536 418.049L629.713 591.158L498.546 637.177L399.467 466.096Z" fill="#89CC9A" stroke="white" stroke-width="4" stroke-linecap="round" stroke-linejoin="round"/>
<path d="M532.528 418.114L654.694 324.667L752.155 497.607L629.713 591.158L532.528 418.114Z" fill="#3EB86A" stroke="white" stroke-width="4" stroke-linecap="round" stroke-linejoin="round"/>
<path d="M532.536 418.049L399.456 466.035L511.835 374.516L654.651 324.819L532.536 418.049Z" fill="#AED0B4" stroke="white" stroke-width="5" stroke-linecap="round" stroke-linejoin="round"/>
<path d="M508.663 76.791L631.402 15.2662L744.853 170.969L623.715 230.322L508.663 76.791Z" fill="#9585BF" stroke="white" stroke-width="4" stroke-linecap="round" stroke-linejoin="round"/>
<path d="M631.401 15.3311L738.438 -88.6972L852.143 66.8095L744.852 170.97L631.401 15.3311Z" fill="#6D5CA8" stroke="white" stroke-width="4" stroke-linecap="round" stroke-linejoin="round"/>
<path d="M631.401 15.266L508.646 76.7334L606.472 -24.317L738.414 -88.5476L631.401 15.266Z" fill="#C3C1DF" stroke="white" stroke-width="5" stroke-linecap="round" stroke-linejoin="round"/>
<path d="M603.37 491.956L743.089 376.573L935.002 543.364L796.7 655.481L603.37 491.956Z" fill="#3D75BE" stroke="white" stroke-width="4" stroke-linecap="round" stroke-linejoin="round"/>
<path d="M743.107 376.655L850.08 211.233L1042.26 377.697L935.002 543.364L743.107 376.655Z" fill="#26204E" stroke="white" stroke-width="4" stroke-linecap="round" stroke-linejoin="round"/>
<path d="M743.089 376.573L603.331 491.888L699.334 333.016L850.093 211.434L743.089 376.573Z" fill="#6FC8F3" stroke="white" stroke-width="5" stroke-linecap="round" stroke-linejoin="round"/>
<path d="M753.119 -25.1465L937.803 30.7356L903.027 299.243L722.076 242.692L753.119 -25.1465Z" fill="#89CC9A" stroke="white" stroke-width="4" stroke-linecap="round" stroke-linejoin="round"/>
<path d="M937.74 30.8004L1147.49 28.1458L1113.17 296.698L903.027 299.243L937.74 30.8004Z" fill="#3EB86A" stroke="white" stroke-width="4" stroke-linecap="round" stroke-linejoin="round"/>
<path d="M937.803 30.7357L753.157 -25.2217L950.635 -33.7424L1147.32 28.276L937.803 30.7357Z" fill="#AED0B4" stroke="white" stroke-width="5" stroke-linecap="round" stroke-linejoin="round"/>
<path d="M783.074 227.058L924.074 202.495L990.574 391.995L851.824 414.87L783.074 227.058Z" fill="#E791B3" stroke="white" stroke-width="4" stroke-linecap="round" stroke-linejoin="round"/>
<path d="M924.054 202.559L1062.14 130.852L1128.96 320.232L990.574 391.995L924.054 202.559Z" fill="#CE3466" stroke="white" stroke-width="4" stroke-linecap="round" stroke-linejoin="round"/>
<path d="M924.074 202.496L783.074 226.996L911.074 155.496L1062.07 130.996L924.074 202.496Z" fill="#D72C63" stroke="white" stroke-width="5" stroke-linecap="round" stroke-linejoin="round"/>
</g>
<defs>
<clipPath id="clip0">
<rect width="1089" height="887" fill="white"/>
</clipPath>
</defs>
</svg>
