<svg width="1539" height="1530" viewBox="0 0 1539 1530" fill="none" xmlns="http://www.w3.org/2000/svg">
<g clip-path="url(#clip0)">
<rect width="1539" height="1530" fill="#26204E"/>
<path fill-rule="evenodd" clip-rule="evenodd" d="M1106.76 953.116L1173.12 703.233L987.807 518.91L919.842 768.221L1106.76 953.116Z" fill="#FFA382"/>
<path fill-rule="evenodd" clip-rule="evenodd" d="M1172.05 703.747L1416.79 637.55L1232.61 450.032L985.941 519.144L1172.05 703.747V703.747Z" fill="#FE7B6E"/>
<path fill-rule="evenodd" clip-rule="evenodd" d="M1349.58 889.815L1416.79 637.55L1172.05 703.747L1106.76 953.116L1349.58 889.815Z" fill="#FE6A47"/>
<path d="M1168.39 703.366L1168.67 702.566L983.87 519.318M1168.39 703.366L983.87 519.318M1168.39 703.366L1413.94 637.442L1228.66 450.446L983.87 519.318M983.87 519.318L915.937 765.971L1104.42 954.093L1346.71 889.713L1413.93 637.438M1104.41 954.089L1168.38 703.362" stroke="white" stroke-width="12.3602" stroke-miterlimit="2.613" stroke-linecap="round" stroke-linejoin="round"/>
<path fill-rule="evenodd" clip-rule="evenodd" d="M497.29 980.057L369.645 760.946L113.293 762.059L239.431 981.889L497.29 980.057Z" fill="#644181"/>
<path fill-rule="evenodd" clip-rule="evenodd" d="M369.264 762.043L492.726 546.193L234.936 544.311L112.165 763.518L369.264 762.043V762.043Z" fill="#8E87B4"/>
<path fill-rule="evenodd" clip-rule="evenodd" d="M621.436 767.547L492.726 546.193L369.264 762.043L497.29 980.057L621.436 767.547Z" fill="#331C55"/>
<path d="M366.464 764.321L366.102 763.574L110.852 765.076M366.464 764.321L110.852 765.076M366.464 764.321L490.679 548.096L232.489 547.341L110.852 765.076M110.852 765.076L235.164 983.044L496.348 982.359L619.384 769.463L490.67 548.1M496.339 982.364L366.455 764.326" stroke="white" stroke-width="12.3602" stroke-miterlimit="2.613" stroke-linecap="round" stroke-linejoin="round"/>
<path fill-rule="evenodd" clip-rule="evenodd" d="M380.147 1429.84L303.096 1136.4L7.2085 1055.67L82.2901 1349.45L380.147 1429.84Z" fill="#DDAC2A"/>
<path fill-rule="evenodd" clip-rule="evenodd" d="M302.307 1137.54L513.7 928.206L217.111 843.557L5.44116 1056.99L302.307 1137.54V1137.54Z" fill="#C77C44"/>
<path fill-rule="evenodd" clip-rule="evenodd" d="M591.26 1224.57L513.7 928.206L302.307 1137.54L380.148 1429.84L591.26 1224.57Z" fill="#E7E545"/>
<path d="M298.35 1139.28L298.172 1138.3L3.42837 1058.36M298.35 1139.28L3.42837 1058.36M298.35 1139.28L510.731 929.745L213.321 846.267L3.42837 1058.36M3.42837 1058.36L77.0018 1349.42L378.325 1432.19L588.281 1226.12L510.719 929.747M378.313 1432.2L298.339 1139.28" stroke="white" stroke-width="12.3602" stroke-miterlimit="2.613" stroke-linecap="round" stroke-linejoin="round"/>
<path fill-rule="evenodd" clip-rule="evenodd" d="M824.31 1235.77L799.514 912.191L503.622 770.47L526.28 1094.04L824.31 1235.77Z" fill="#39AF8D"/>
<path fill-rule="evenodd" clip-rule="evenodd" d="M798.464 913.241L1061.08 733.493L765.201 587.52L501.509 771.52L798.464 913.241V913.241Z" fill="#C7E5E3"/>
<path fill-rule="evenodd" clip-rule="evenodd" d="M1085.85 1060.25L1061.08 733.493L798.464 913.241L824.31 1235.77L1085.85 1060.25Z" fill="#29A979"/>
<path d="M793.968 914.304V913.241L499.127 772.583M793.968 914.304L499.127 772.583M793.968 914.304L1057.66 734.543L760.693 589.646L499.127 772.583M499.127 772.583L520.721 1092.99L821.941 1237.9L1082.42 1061.31L1057.65 734.543M821.928 1237.9L793.955 914.304" stroke="white" stroke-width="12.3602" stroke-miterlimit="2.613" stroke-linecap="round" stroke-linejoin="round"/>
<path fill-rule="evenodd" clip-rule="evenodd" d="M684.096 1080.29L604.419 1421.97L863.388 1664.32L945.266 1323.35L684.096 1080.29Z" fill="#26204E"/>
<path fill-rule="evenodd" clip-rule="evenodd" d="M605.843 1421.23L276.626 1521.13L534.199 1767.86L865.908 1663.92L605.843 1421.23V1421.23Z" fill="#131857"/>
<path fill-rule="evenodd" clip-rule="evenodd" d="M357.363 1176.19L276.627 1521.13L605.843 1421.23L684.095 1080.29L357.363 1176.19Z" fill="#3D75BE"/>
<path d="M610.824 1421.59L610.478 1422.69L868.71 1663.6M610.824 1421.59L868.71 1663.6M610.824 1421.59L280.494 1521.16L539.539 1767.14L868.71 1663.6M868.71 1663.6L950.655 1326.24L687.23 1078.87L361.247 1176.21L280.507 1521.17M687.243 1078.88L610.837 1421.6" stroke="white" stroke-width="12.3602" stroke-miterlimit="2.613" stroke-linecap="round" stroke-linejoin="round"/>
<path fill-rule="evenodd" clip-rule="evenodd" d="M1191.67 1626.45L1084.88 1343.38L783.065 1293.93L887.934 1577.54L1191.67 1626.45Z" fill="#F4433D"/>
<path fill-rule="evenodd" clip-rule="evenodd" d="M1084.22 1344.6L1272.21 1115.1L969.297 1061.84L781.449 1295.42L1084.22 1344.6V1344.6Z" fill="#FC7A76"/>
<path fill-rule="evenodd" clip-rule="evenodd" d="M1379.81 1401.01L1272.21 1115.1L1084.22 1344.6L1191.67 1626.45L1379.81 1401.01Z" fill="#F63B36"/>
<path d="M1080.47 1346.73L1080.19 1345.77L779.595 1297M1080.47 1346.73L779.595 1297M1080.47 1346.73L1269.43 1116.93L965.819 1064.92L779.595 1297M779.595 1297L882.685 1578.05L1190.1 1628.97L1377.01 1402.86L1269.42 1116.94M1190.09 1628.97L1080.46 1346.73" stroke="white" stroke-width="12.3602" stroke-miterlimit="2.613" stroke-linecap="round" stroke-linejoin="round"/>
<path fill-rule="evenodd" clip-rule="evenodd" d="M1417.51 774.684L1280.23 1016.42L1422.59 1258.75L1561.38 1018.04L1417.51 774.684Z" fill="#F55D95"/>
<path fill-rule="evenodd" clip-rule="evenodd" d="M1281.48 1016.18L1008.87 1018.16L1149.18 1263.49L1424.59 1259.01L1281.48 1016.18V1016.18Z" fill="#F683B9"/>
<path fill-rule="evenodd" clip-rule="evenodd" d="M1147.69 774.174L1008.87 1018.16L1281.48 1016.18L1417.51 774.684L1147.69 774.174Z" fill="#FD4164"/>
<path d="M1285.18 1017.58L1284.67 1018.33L1426.79 1259.4M1285.18 1017.58L1426.79 1259.4M1285.18 1017.58L1011.8 1019.05L1153.4 1264.14L1426.79 1259.4M1426.79 1259.4L1564.83 1021.45L1420.21 774.308L1150.64 775.062L1011.81 1019.06M1420.22 774.314L1285.19 1017.58" stroke="white" stroke-width="12.3602" stroke-miterlimit="2.613" stroke-linecap="round" stroke-linejoin="round"/>
</g>
<defs>
<clipPath id="clip0">
<rect width="1539" height="1530" fill="white"/>
</clipPath>
</defs>
</svg>
